# xmcd
#
# Track frame offsets: 
#        150
#        13699
#        26635
#        36661
#        55178
#        70778
#        85475
#        94609
#        111888
#        122520
#        137486
#        158161
#        173951
#        194710
#        208016
#        230086
#
# Disc length: 3222 seconds
#
# Revision: 0
# Processed by: cddbd v1.5.2PL0 Copyright (c) Steve Scherf et al.
# Submitted via: ExactAudioCopy v1.0b4
#
DISCID=e30c9410
DTITLE=Krausberry - 31 let A
DYEAR=2015
DGENRE=Blues
TTITLE0=Ohníčky
TTITLE1=Camp
TTITLE2=Jaroslav
TTITLE3=Náš dům
TTITLE4=Svatba nebude
TTITLE5=Tak ber
TTITLE6=V konzumu
TTITLE7=Náměstek
TTITLE8=Vendulka
TTITLE9=Na větvi
TTITLE10=Slunečný hrob
TTITLE11=Mejdlo (Hey Baby)
TTITLE12=Poselství štěstí
TTITLE13=Vševěd
TTITLE14=Souboj s hadem
TTITLE15=Můstek
EXTD=
EXTT0=
EXTT1=
EXTT2=
EXTT3=
EXTT4=
EXTT5=
EXTT6=
EXTT7=
EXTT8=
EXTT9=
EXTT10=
EXTT11=
EXTT12=
EXTT13=
EXTT14=
EXTT15=
PLAYORDER=
